<svg xmlns="http://www.w3.org/2000/svg" style="display:none">
  <symbol id="icon-hbar" viewBox="0 0 24 24">
    <line x1="4" y1="6" x2="20" y2="6"/>
    <line x1="4" y1="12" x2="16" y2="12"/>
    <line x1="4" y1="18" x2="12" y2="18"/>
  </symbol>

  <symbol id="icon-trend" viewBox="0 0 24 24">
    <polyline points="4,16 9,11 13,15 20,8"/>
    <line x1="4" y1="20" x2="20" y2="20"/>
  </symbol>

  <symbol id="icon-scatter" viewBox="0 0 24 24">
    <circle cx="8" cy="14" r="1.5"/>
    <circle cx="12" cy="10" r="1.5"/>
    <circle cx="17" cy="13" r="1.5"/>
    <line x1="4" y1="20" x2="20" y2="20"/>
    <line x1="4" y1="20" x2="4" y2="6"/>
  </symbol>

  <symbol id="icon-vbar" viewBox="0 0 24 24">
    <line x1="4" y1="20" x2="20" y2="20"/>
    <line x1="4" y1="20" x2="4" y2="6"/>
    <rect x="7" y="11" width="2.5" height="9" rx="0.8"/>
    <rect x="11" y="8" width="2.5" height="12" rx="0.8"/>
    <rect x="15" y="13" width="2.5" height="7" rx="0.8"/>
  </symbol>

  <symbol id="icon-pie" viewBox="0 0 24 24">
    <path d="M12 12V3a9 9 0 1 1-9 9h9z"/>
    <path d="M12 12h9A9 9 0 0 0 12 3v9z"/>
  </symbol>

  <symbol id="icon-sankey" viewBox="0 0 24 24">
    <circle cx="6" cy="6" r="2"/>
    <circle cx="6" cy="18" r="2"/>
    <circle cx="18" cy="12" r="2"/>
    <path d="M8 6h4c3 0 3 6 6 6"/>
    <path d="M8 18h4c3 0 3-6 6-6"/>
  </symbol>

  <symbol id="icon-list" viewBox="0 0 24 24">
    <line x1="6" y1="7" x2="20" y2="7"/>
    <line x1="6" y1="12" x2="20" y2="12"/>
    <line x1="6" y1="17" x2="20" y2="17"/>
    <circle cx="4" cy="7" r="1"/>
    <circle cx="4" cy="12" r="1"/>
    <circle cx="4" cy="17" r="1"/>
  </symbol>

  <symbol id="icon-sort-az" viewBox="0 0 24 24">
    <path d="M6 3v14"/>
    <path d="M3 14l3 3 3-3"/>
    <path d="M11 6h9"/>
    <path d="M11 11h7"/>
    <path d="M11 16h5"/>
  </symbol>

  <symbol id="icon-money" viewBox="0 0 24 24">
    <path d="M12 2v20"/>
    <path d="M17 6c0-2-2-4-5-4S7 4 7 6s2 3 5 4 5 2 5 4-2 4-5 4-5-2-5-4"/>
  </symbol>

  <symbol id="icon-save" viewBox="0 0 24 24">
    <path d="M5 3h14l2 2v16H5z"/>
    <path d="M8 3v6h8V3"/>
    <path d="M8 21v-6h8v6"/>
  </symbol>
</svg>
